<svg width="28" height="22" viewBox="0 0 28 22" fill="none" xmlns="http://www.w3.org/2000/svg">
<path fill-rule="evenodd" clip-rule="evenodd" d="M1.23463 0.152299C1.98198 -0.157263 2.84222 0.0138489 3.41421 0.585845L14 11.1716L24.5858 0.585845C25.1578 0.0138489 26.018 -0.157263 26.7654 0.152299C27.5127 0.461861 28 1.19113 28 2.00006V20.0001C28 21.1046 27.1046 22.0001 26 22.0001C24.8954 22.0001 24 21.1046 24 20.0001V6.82849L15.4142 15.4143C14.6332 16.1953 13.3668 16.1953 12.5858 15.4143L4 6.82849V20.0001C4 21.1046 3.10457 22.0001 2 22.0001C0.89543 22.0001 0 21.1046 0 20.0001V2.00006C0 1.19113 0.487284 0.461861 1.23463 0.152299Z" fill="#00C6A2"/>
</svg>
